<?xml version="1.0" encoding="UTF-8" standalone="no"?>
<!-- Created with Inkscape (http://www.inkscape.org/) -->

<svg
   version="1.1"
   id="svg1"
   width="880"
   height="880"
   viewBox="0 0 880 880"
   sodipodi:docname="night-studying.svg"
   inkscape:version="1.3.2 (091e20e, 2023-11-25, custom)"
   xmlns:inkscape="http://www.inkscape.org/namespaces/inkscape"
   xmlns:sodipodi="http://sodipodi.sourceforge.net/DTD/sodipodi-0.dtd"
   xmlns="http://www.w3.org/2000/svg"
   xmlns:svg="http://www.w3.org/2000/svg">
  <defs
     id="defs1">
    <clipPath
       clipPathUnits="userSpaceOnUse"
       id="clipPath4">
      <path
         d="M 0,660 H 660 V 0 H 0 Z"
         transform="translate(-330.00051,-549.18652)"
         id="path4" />
    </clipPath>
    <clipPath
       clipPathUnits="userSpaceOnUse"
       id="clipPath6">
      <path
         d="M 0,660 H 660 V 0 H 0 Z"
         transform="translate(-209.00491,-326.92191)"
         id="path6" />
    </clipPath>
    <clipPath
       clipPathUnits="userSpaceOnUse"
       id="clipPath8">
      <path
         d="M 0,660 H 660 V 0 H 0 Z"
         transform="translate(-264.99801,-482.11961)"
         id="path8" />
    </clipPath>
    <clipPath
       clipPathUnits="userSpaceOnUse"
       id="clipPath10">
      <path
         d="M 0,660 H 660 V 0 H 0 Z"
         id="path10" />
    </clipPath>
    <clipPath
       clipPathUnits="userSpaceOnUse"
       id="clipPath12">
      <path
         d="M 0,660 H 660 V 0 H 0 Z"
         transform="translate(-330.00051,-235.6318)"
         id="path12" />
    </clipPath>
    <clipPath
       clipPathUnits="userSpaceOnUse"
       id="clipPath14">
      <path
         d="M 0,660 H 660 V 0 H 0 Z"
         transform="translate(-330.00051,-232.6357)"
         id="path14" />
    </clipPath>
    <clipPath
       clipPathUnits="userSpaceOnUse"
       id="clipPath16">
      <path
         d="M 0,660 H 660 V 0 H 0 Z"
         id="path16" />
    </clipPath>
    <clipPath
       clipPathUnits="userSpaceOnUse"
       id="clipPath18">
      <path
         d="M 0,660 H 660 V 0 H 0 Z"
         id="path18" />
    </clipPath>
    <clipPath
       clipPathUnits="userSpaceOnUse"
       id="clipPath20">
      <path
         d="M 0,660 H 660 V 0 H 0 Z"
         id="path20" />
    </clipPath>
    <clipPath
       clipPathUnits="userSpaceOnUse"
       id="clipPath22">
      <path
         d="M 0,660 H 660 V 0 H 0 Z"
         transform="translate(-330.00051,-142.833)"
         id="path22" />
    </clipPath>
    <clipPath
       clipPathUnits="userSpaceOnUse"
       id="clipPath24">
      <path
         d="M 0,660 H 660 V 0 H 0 Z"
         id="path24" />
    </clipPath>
    <clipPath
       clipPathUnits="userSpaceOnUse"
       id="clipPath26">
      <path
         d="M 0,660 H 660 V 0 H 0 Z"
         transform="translate(-336.88381,-358.10841)"
         id="path26" />
    </clipPath>
    <clipPath
       clipPathUnits="userSpaceOnUse"
       id="clipPath28">
      <path
         d="M 0,660 H 660 V 0 H 0 Z"
         transform="translate(-429.29981,-193.1982)"
         id="path28" />
    </clipPath>
    <clipPath
       clipPathUnits="userSpaceOnUse"
       id="clipPath30">
      <path
         d="M 0,660 H 660 V 0 H 0 Z"
         id="path30" />
    </clipPath>
    <clipPath
       clipPathUnits="userSpaceOnUse"
       id="clipPath32">
      <path
         d="M 0,660 H 660 V 0 H 0 Z"
         transform="translate(-399.99321,-203.00391)"
         id="path32" />
    </clipPath>
    <clipPath
       clipPathUnits="userSpaceOnUse"
       id="clipPath34">
      <path
         d="M 0,660 H 660 V 0 H 0 Z"
         transform="translate(-399.99321,-201.96091)"
         id="path34" />
    </clipPath>
    <clipPath
       clipPathUnits="userSpaceOnUse"
       id="clipPath36">
      <path
         d="M 0,660 H 660 V 0 H 0 Z"
         transform="translate(-305.65331,-142.51461)"
         id="path36" />
    </clipPath>
    <clipPath
       clipPathUnits="userSpaceOnUse"
       id="clipPath38">
      <path
         d="M 0,660 H 660 V 0 H 0 Z"
         transform="translate(-234.00051,-156.85251)"
         id="path38" />
    </clipPath>
  </defs>
  <sodipodi:namedview
     id="namedview1"
     pagecolor="#ffffff"
     bordercolor="#000000"
     borderopacity="0.25"
     inkscape:showpageshadow="2"
     inkscape:pageopacity="0.0"
     inkscape:pagecheckerboard="0"
     inkscape:deskcolor="#d1d1d1"
     inkscape:zoom="0.69318182"
     inkscape:cx="439.27869"
     inkscape:cy="440"
     inkscape:window-width="1440"
     inkscape:window-height="830"
     inkscape:window-x="-6"
     inkscape:window-y="-6"
     inkscape:window-maximized="1"
     inkscape:current-layer="g1">
    <inkscape:page
       x="0"
       y="0"
       inkscape:label="1"
       id="page1"
       width="880"
       height="880"
       margin="0"
       bleed="0" />
  </sodipodi:namedview>
  <g
     id="g1"
     inkscape:groupmode="layer"
     inkscape:label="1">
    <g
       id="group-MC0">
      <path
         id="path2"
         d="M 0,0 H 660 V 660 H 0 Z"
         style="fill:#313033;fill-opacity:1;fill-rule:nonzero;stroke:#252d36;stroke-width:0.788;stroke-linecap:butt;stroke-linejoin:miter;stroke-miterlimit:22.926;stroke-dasharray:none;stroke-opacity:1"
         transform="matrix(1.3333333,0,0,-1.3333333,0,880)" />
      <path
         id="path3"
         d="m 0,0 c 147.036,0 266.233,-119.197 266.233,-266.233 0,-57.179 -18.031,-110.144 -48.71,-153.53 h -435.048 c -30.678,43.386 -48.709,96.351 -48.709,153.53 C -266.234,-119.197 -147.038,0 0,0"
         style="fill:#47473f;fill-opacity:1;fill-rule:evenodd;stroke:none"
         transform="matrix(1.3333333,0,0,-1.3333333,440.00067,147.75133)"
         clip-path="url(#clipPath4)" />
      <path
         id="path5"
         d="M 0,0 -66.629,-186.279 H 308.619 L 241.99,0 Z"
         style="fill:#8c651c;fill-opacity:1;fill-rule:evenodd;stroke:none"
         transform="matrix(1.3333333,0,0,-1.3333333,278.6732,444.10413)"
         clip-path="url(#clipPath6)" />
      <path
         id="path7"
         d="m 0,0 h 130.004 l 55.993,-155.198 h -241.99 z"
         style="fill:#ffbb00;fill-opacity:1;fill-rule:evenodd;stroke:none"
         transform="matrix(1.3333333,0,0,-1.3333333,353.33067,237.17387)"
         clip-path="url(#clipPath8)" />
      <path
         id="path9"
         d="m 323.115,151.697 h 13.769 v 175.225 h -13.769 z"
         style="fill:#823103;fill-opacity:1;fill-rule:evenodd;stroke:none"
         transform="matrix(1.3333333,0,0,-1.3333333,0,880)"
         clip-path="url(#clipPath10)" />
      <path
         id="path11"
         d="m 0,0 c 9.996,0 18.148,8.152 18.148,18.148 0,9.995 -8.152,18.147 -18.148,18.147 -9.995,0 -18.149,-8.152 -18.149,-18.147 C -18.149,8.152 -9.995,0 0,0"
         style="fill:#ffbb00;fill-opacity:1;fill-rule:evenodd;stroke:none"
         transform="matrix(1.3333333,0,0,-1.3333333,440.00067,565.82427)"
         clip-path="url(#clipPath12)" />
      <path
         id="path13"
         d="m 0,0 c 9.996,0 18.148,8.152 18.148,18.147 0,9.996 -8.152,18.149 -18.148,18.149 -9.995,0 -18.149,-8.153 -18.149,-18.149 C -18.149,8.152 -9.995,0 0,0"
         style="fill:#782c00;fill-opacity:1;fill-rule:evenodd;stroke:none"
         transform="matrix(1.3333333,0,0,-1.3333333,440.00067,569.81907)"
         clip-path="url(#clipPath14)" />
      <path
         id="path15"
         d="m 256.782,140.643 h 146.436 v 18.565 H 256.782 Z"
         style="fill:#823103;fill-opacity:1;fill-rule:evenodd;stroke:none"
         transform="matrix(1.3333333,0,0,-1.3333333,0,880)"
         clip-path="url(#clipPath16)" />
      <path
         id="path17"
         d="m 256.782,159.208 h 146.436 v 2.496 H 256.782 Z"
         style="fill:#e39400;fill-opacity:1;fill-rule:evenodd;stroke:none"
         transform="matrix(1.3333333,0,0,-1.3333333,0,880)"
         clip-path="url(#clipPath18)" />
      <path
         id="path19"
         d="m 66.33,110.814 h 527.339 v 29.828 H 66.33 Z"
         style="fill:#111112;fill-opacity:1;fill-rule:evenodd;stroke:none"
         transform="matrix(1.3333333,0,0,-1.3333333,0,880)"
         clip-path="url(#clipPath20)" />
      <path
         id="path21"
         d="M 0,0 -131.833,-1.095 -263.67,-2.188 H 0 263.668 l -131.836,1.093 z"
         style="fill:#e39400;fill-opacity:1;fill-rule:evenodd;stroke:none"
         transform="matrix(1.3333333,0,0,-1.3333333,440.00067,689.556)"
         clip-path="url(#clipPath22)" />
      <path
         id="path23"
         d="m 323.115,326.922 h 13.769 v 31.187 h -13.769 z"
         style="fill:#fab700;fill-opacity:1;fill-rule:evenodd;stroke:none"
         transform="matrix(1.3333333,0,0,-1.3333333,0,880)"
         clip-path="url(#clipPath24)" />
      <path
         id="path25"
         d="m 0,0 h -13.769 v 10.267 c -7.209,2.59 -12.403,9.507 -12.403,17.581 v 13.35 c 0,10.269 8.401,18.67 18.669,18.67 10.269,0 18.67,-8.401 18.67,-18.67 V 27.848 C 11.167,20.244 6.561,13.665 0,10.762 Z"
         style="fill:#ffca38;fill-opacity:1;fill-rule:evenodd;stroke:none"
         transform="matrix(1.3333333,0,0,-1.3333333,449.1784,402.52213)"
         clip-path="url(#clipPath26)" />
      <path
         id="path27"
         d="m 0,0 h 31.082 c 8.489,0 15.436,-6.946 15.436,-15.436 V -26.91 c 0,-8.489 -6.947,-15.436 -15.436,-15.436 l -31.082,0 z m 9.179,-9.178 v -23.988 h 21.903 c 3.424,0 6.258,2.833 6.258,6.256 v 11.474 c 0,3.424 -2.834,6.258 -6.258,6.258 z"
         style="fill:#bd460b;fill-opacity:1;fill-rule:evenodd;stroke:none"
         transform="matrix(1.3333333,0,0,-1.3333333,572.39973,622.4024)"
         clip-path="url(#clipPath28)" />
      <path
         id="path29"
         d="m 399.993,140.645 h 56.008 v 63.037 h -56.008 z"
         style="fill:#e86625;fill-opacity:1;fill-rule:evenodd;stroke:none"
         transform="matrix(1.3333333,0,0,-1.3333333,0,880)"
         clip-path="url(#clipPath30)" />
      <path
         id="path31"
         d="m 0,0 h 56.008 v 3.65 c 0,2.007 -1.643,3.65 -3.651,3.65 H 3.65 C 1.642,7.3 0,5.657 0,3.65 Z"
         style="fill:#ffffff;fill-opacity:1;fill-rule:evenodd;stroke:none"
         transform="matrix(1.3333333,0,0,-1.3333333,533.32427,609.32813)"
         clip-path="url(#clipPath32)" />
      <path
         id="path33"
         d="m 0,0 h 56.008 v 3.65 c 0,2.007 -1.643,3.65 -3.651,3.65 H 3.65 C 1.642,7.3 0,5.657 0,3.65 Z"
         style="fill:#ffd6c2;fill-opacity:1;fill-rule:evenodd;stroke:none"
         transform="matrix(1.3333333,0,0,-1.3333333,533.32427,610.7188)"
         clip-path="url(#clipPath34)" />
      <path
         id="path35"
         d="m 0,0 -4.074,6.86 c -24.654,1.629 -49.469,14.661 -73.961,4.887 -24.489,9.774 -49.305,-3.258 -73.958,-4.887 L -156.069,0 -78.035,-0.646 Z"
         style="fill:#ffd6c2;fill-opacity:1;fill-rule:evenodd;stroke:none"
         transform="matrix(1.3333333,0,0,-1.3333333,407.53773,689.98053)"
         clip-path="url(#clipPath36)" />
      <path
         id="path37"
         d="M 0,0 9.022,1.669 V -9.7 L 4.51,-6.05 0,-9.7 Z"
         style="fill:#e86625;fill-opacity:1;fill-rule:evenodd;stroke:none"
         transform="matrix(1.3333333,0,0,-1.3333333,312.00067,670.86333)"
         clip-path="url(#clipPath38)" />
    </g>
  </g>
</svg>
